<svg width="16" height="16" viewBox="0 0 16 16" fill="none" xmlns="http://www.w3.org/2000/svg">
<path d="M5.33333 3.83333C5.06 3.83333 4.83333 3.60666 4.83333 3.33333V1.33333C4.83333 1.05999 5.06 0.833328 5.33333 0.833328C5.60667 0.833328 5.83333 1.05999 5.83333 1.33333V3.33333C5.83333 3.60666 5.60667 3.83333 5.33333 3.83333Z" fill="#3C3C3C"/>
<path d="M10.6667 3.83333C10.3933 3.83333 10.1667 3.60666 10.1667 3.33333V1.33333C10.1667 1.05999 10.3933 0.833328 10.6667 0.833328C10.94 0.833328 11.1667 1.05999 11.1667 1.33333V3.33333C11.1667 3.60666 10.94 3.83333 10.6667 3.83333Z" fill="#3C3C3C"/>
<path d="M13.6667 6.55998H2.33333C2.06 6.55998 1.83333 6.33332 1.83333 6.05998C1.83333 5.78665 2.06 5.55998 2.33333 5.55998H13.6667C13.94 5.55998 14.1667 5.78665 14.1667 6.05998C14.1667 6.33332 13.94 6.55998 13.6667 6.55998Z" fill="#3C3C3C"/>
<path d="M10.6667 15.1667H5.33333C2.9 15.1667 1.5 13.7667 1.5 11.3333V5.66666C1.5 3.23333 2.9 1.83333 5.33333 1.83333H10.6667C13.1 1.83333 14.5 3.23333 14.5 5.66666V11.3333C14.5 13.7667 13.1 15.1667 10.6667 15.1667ZM5.33333 2.83333C3.42667 2.83333 2.5 3.75999 2.5 5.66666V11.3333C2.5 13.24 3.42667 14.1667 5.33333 14.1667H10.6667C12.5733 14.1667 13.5 13.24 13.5 11.3333V5.66666C13.5 3.75999 12.5733 2.83333 10.6667 2.83333H5.33333Z" fill="#3C3C3C"/>
<path d="M5.66667 9.66667C5.58 9.66667 5.49333 9.64668 5.41333 9.61335C5.33333 9.58001 5.26001 9.53333 5.19334 9.47333C5.13334 9.40666 5.08666 9.33334 5.05332 9.25334C5.01999 9.17334 5 9.08667 5 9C5 8.82667 5.07334 8.65334 5.19334 8.52668C5.26001 8.46668 5.33333 8.41999 5.41333 8.38666C5.53333 8.33333 5.66667 8.32 5.80001 8.34666C5.84001 8.35333 5.88 8.36666 5.92 8.38666C5.96 8.39999 6 8.42001 6.04 8.44668C6.07333 8.47334 6.10666 8.50001 6.13999 8.52668C6.16666 8.56001 6.19999 8.59334 6.21999 8.62667C6.24666 8.66667 6.26668 8.70667 6.28001 8.74667C6.30001 8.78667 6.31334 8.82666 6.32001 8.86666C6.32667 8.91333 6.33333 8.95334 6.33333 9C6.33333 9.17334 6.25999 9.34666 6.13999 9.47333C6.01333 9.59333 5.84 9.66667 5.66667 9.66667Z" fill="#3C3C3C"/>
<path d="M8 9.66666C7.82667 9.66666 7.65334 9.59332 7.52667 9.47332C7.50001 9.43999 7.47334 9.40666 7.44668 9.37332C7.42001 9.33332 7.39999 9.29333 7.38666 9.25333C7.36666 9.21333 7.35333 9.17333 7.34666 9.13333C7.33999 9.08667 7.33333 9.04666 7.33333 8.99999C7.33333 8.91333 7.35333 8.82666 7.38666 8.74666C7.41999 8.66666 7.46667 8.59333 7.52667 8.52666C7.71334 8.34 8.01334 8.27998 8.25334 8.38665C8.34 8.41998 8.40666 8.46666 8.47333 8.52666C8.59333 8.65333 8.66667 8.82666 8.66667 8.99999C8.66667 9.04666 8.66001 9.08667 8.65334 9.13333C8.64667 9.17333 8.63334 9.21333 8.61334 9.25333C8.60001 9.29333 8.57999 9.33332 8.55333 9.37332C8.52666 9.40666 8.5 9.43999 8.47333 9.47332C8.40666 9.53332 8.34 9.58 8.25334 9.61333C8.17334 9.64667 8.08667 9.66666 8 9.66666Z" fill="#3C3C3C"/>
<path d="M5.66667 12C5.58 12 5.49333 11.98 5.41333 11.9467C5.33333 11.9133 5.26001 11.8667 5.19334 11.8067C5.13334 11.74 5.08666 11.6733 5.05332 11.5867C5.01999 11.5067 5 11.42 5 11.3333C5 11.16 5.07334 10.9867 5.19334 10.86C5.26001 10.8 5.33333 10.7533 5.41333 10.72C5.66 10.6133 5.95333 10.6733 6.13999 10.86C6.16666 10.8933 6.19999 10.9267 6.21999 10.96C6.24666 11 6.26668 11.04 6.28001 11.08C6.30001 11.12 6.31334 11.16 6.32001 11.2067C6.32667 11.2467 6.33333 11.2933 6.33333 11.3333C6.33333 11.5067 6.25999 11.68 6.13999 11.8067C6.01333 11.9267 5.84 12 5.66667 12Z" fill="#3C3C3C"/>
</svg>
