<svg width="16" height="16" viewBox="0 0 16 16" fill="none" xmlns="http://www.w3.org/2000/svg">
<path d="M6.73987 12.1H4.21322C3.93988 12.1 3.71322 11.8734 3.71322 11.6V8.18669C3.71322 7.49336 4.27987 6.92668 4.97321 6.92668H6.73987C7.0132 6.92668 7.23987 7.15335 7.23987 7.42668V11.5933C7.23987 11.8733 7.0132 12.1 6.73987 12.1ZM4.71322 11.1H6.23987V7.93335H4.97321C4.83321 7.93335 4.71322 8.04666 4.71322 8.19332V11.1Z" fill="#3C3C3C"/>
<path d="M9.26007 12.1H6.7334C6.46007 12.1 6.2334 11.8733 6.2334 11.6V5.15999C6.2334 4.46666 6.80005 3.89998 7.49339 3.89998H8.50673C9.20007 3.89998 9.76672 4.46666 9.76672 5.15999V11.6C9.76006 11.8733 9.54007 12.1 9.26007 12.1ZM7.24005 11.1H8.76672V5.15999C8.76672 5.01999 8.6534 4.89998 8.50673 4.89998H7.49339C7.35339 4.89998 7.2334 5.01332 7.2334 5.15999V11.1H7.24005Z" fill="#3C3C3C"/>
<path d="M11.7867 12.1H9.26009C8.98676 12.1 8.76009 11.8734 8.76009 11.6V8.56665C8.76009 8.29332 8.98676 8.06665 9.26009 8.06665H11.0268C11.7201 8.06665 12.2867 8.63333 12.2867 9.32666V11.6C12.2867 11.8734 12.0667 12.1 11.7867 12.1ZM9.76009 11.1H11.2867V9.32666C11.2867 9.18666 11.1734 9.06665 11.0268 9.06665H9.76009V11.1Z" fill="#3C3C3C"/>
<path d="M10 15.1667H6C2.38 15.1667 0.833333 13.62 0.833333 10V6C0.833333 2.38 2.38 0.833328 6 0.833328H10C13.62 0.833328 15.1667 2.38 15.1667 6V10C15.1667 13.62 13.62 15.1667 10 15.1667ZM6 1.83333C2.92667 1.83333 1.83333 2.92666 1.83333 6V10C1.83333 13.0733 2.92667 14.1667 6 14.1667H10C13.0733 14.1667 14.1667 13.0733 14.1667 10V6C14.1667 2.92666 13.0733 1.83333 10 1.83333H6Z" fill="#3C3C3C"/>
</svg>
