<svg width="16" height="16" viewBox="0 0 16 16" fill="none" xmlns="http://www.w3.org/2000/svg">
<path d="M10.6667 15.1667H5.33333C2.9 15.1667 1.5 13.7667 1.5 11.3333V4.66666C1.5 2.23333 2.9 0.833328 5.33333 0.833328H10.6667C13.1 0.833328 14.5 2.23333 14.5 4.66666V11.3333C14.5 13.7667 13.1 15.1667 10.6667 15.1667ZM5.33333 1.83333C3.42667 1.83333 2.5 2.75999 2.5 4.66666V11.3333C2.5 13.24 3.42667 14.1667 5.33333 14.1667H10.6667C12.5733 14.1667 13.5 13.24 13.5 11.3333V4.66666C13.5 2.75999 12.5733 1.83333 10.6667 1.83333H5.33333Z" fill="#3C3C3C"/>
<path d="M12.3333 6.16667H11C9.98667 6.16667 9.16667 5.34667 9.16667 4.33333V3C9.16667 2.72667 9.39333 2.5 9.66667 2.5C9.94 2.5 10.1667 2.72667 10.1667 3V4.33333C10.1667 4.79333 10.54 5.16667 11 5.16667H12.3333C12.6067 5.16667 12.8333 5.39333 12.8333 5.66667C12.8333 5.94 12.6067 6.16667 12.3333 6.16667Z" fill="#3C3C3C"/>
<path d="M8 9.16667H5.33333C5.06 9.16667 4.83333 8.94001 4.83333 8.66667C4.83333 8.39334 5.06 8.16667 5.33333 8.16667H8C8.27333 8.16667 8.5 8.39334 8.5 8.66667C8.5 8.94001 8.27333 9.16667 8 9.16667Z" fill="#3C3C3C"/>
<path d="M10.6667 11.8333H5.33333C5.06 11.8333 4.83333 11.6067 4.83333 11.3333C4.83333 11.06 5.06 10.8333 5.33333 10.8333H10.6667C10.94 10.8333 11.1667 11.06 11.1667 11.3333C11.1667 11.6067 10.94 11.8333 10.6667 11.8333Z" fill="#3C3C3C"/>
</svg>
