<svg width="16" height="16" viewBox="0 0 16 16" fill="none" xmlns="http://www.w3.org/2000/svg">
<path d="M8 12.5C7.72667 12.5 7.5 12.2733 7.5 12V10C7.5 9.72667 7.72667 9.5 8 9.5C8.27333 9.5 8.5 9.72667 8.5 10V12C8.5 12.2733 8.27333 12.5 8 12.5Z" fill="#3C3C3C"/>
<path d="M11.7333 15.04H4.26667C3.05333 15.04 1.94667 14.1067 1.74667 12.9133L0.86 7.6C0.713334 6.77333 1.12 5.71333 1.78 5.18667L6.4 1.48667C7.29333 0.766668 8.7 0.773334 9.6 1.49333L14.22 5.18667C14.8733 5.71333 15.2733 6.77333 15.14 7.6L14.2533 12.9067C14.0533 14.0867 12.92 15.04 11.7333 15.04ZM7.99333 1.95333C7.64 1.95333 7.28667 2.06 7.02667 2.26667L2.40667 5.97333C2.03333 6.27333 1.76667 6.96667 1.84667 7.44L2.73333 12.7467C2.85333 13.4467 3.55333 14.04 4.26667 14.04H11.7333C12.4467 14.04 13.1467 13.4467 13.2667 12.74L14.1533 7.43333C14.2267 6.96667 13.96 6.26 13.5933 5.96667L8.97333 2.27333C8.70667 2.06 8.34667 1.95333 7.99333 1.95333Z" fill="#3C3C3C"/>
</svg>
